<svg width="27" height="27" viewBox="0 0 27 27" fill="none" xmlns="http://www.w3.org/2000/svg">
<path d="M24.5814 26.4893L15.3939 17.3018C14.6647 17.8851 13.8262 18.3469 12.8783 18.6872C11.9303 19.0275 10.9217 19.1976 9.85221 19.1976C7.20291 19.1976 4.96072 18.2801 3.12565 16.445C1.29058 14.6099 0.373047 12.3677 0.373047 9.71842C0.373047 7.06912 1.29058 4.82693 3.12565 2.99186C4.96072 1.15679 7.20291 0.239258 9.85221 0.239258C12.5015 0.239258 14.7437 1.15679 16.5788 2.99186C18.4138 4.82693 19.3314 7.06912 19.3314 9.71842C19.3314 10.7879 19.1612 11.7965 18.821 12.7445C18.4807 13.6924 18.0189 14.5309 17.4355 15.2601L26.623 24.4476L24.5814 26.4893ZM9.85221 16.2809C11.6751 16.2809 13.2246 15.6429 14.5007 14.3669C15.7767 13.0908 16.4147 11.5413 16.4147 9.71842C16.4147 7.89551 15.7767 6.34603 14.5007 5.06999C13.2246 3.79395 11.6751 3.15592 9.85221 3.15592C8.0293 3.15592 6.47982 3.79395 5.20378 5.06999C3.92773 6.34603 3.28971 7.89551 3.28971 9.71842C3.28971 11.5413 3.92773 13.0908 5.20378 14.3669C6.47982 15.6429 8.0293 16.2809 9.85221 16.2809Z" fill="#BCAC03"/>
</svg>
